<svg width="89" height="89" viewBox="0 0 89 89" fill="none" xmlns="http://www.w3.org/2000/svg">
<path fill-rule="evenodd" clip-rule="evenodd" d="M46.0557 12.0494C45.2397 12.1071 44.98 12.2018 44.783 12.5134C44.4868 12.9818 44.144 14.5434 44.144 15.4234C44.144 16.5501 42.6956 17.5204 41.6562 17.0898C41.3951 16.9816 40.7064 16.3299 40.1261 15.6418C39.5459 14.9536 38.936 14.3166 38.771 14.2263C38.3764 14.0101 38.0336 14.1601 35.778 15.5362C34.035 16.5996 33.9054 16.718 33.8559 17.2915C33.8217 17.6872 33.9963 18.3378 34.3454 19.1158C35.0725 20.7365 35.0588 21.4028 34.2828 22.1788C33.5519 22.9097 33.1816 22.9314 31.5396 22.339C30.0807 21.8129 29.1818 21.7696 28.7861 22.2068C28.4454 22.5833 26.601 25.8145 26.4435 26.3109C26.3794 26.5131 26.4372 26.765 26.58 26.9039C27.1092 27.4185 28.065 28.2337 28.6644 28.6817L29.2916 29.1504L30.5506 28.3214C33.535 26.3565 36.8565 24.9323 39.872 24.3245C44.2381 23.4442 49.4608 23.9697 52.9856 25.6438C53.8617 26.06 54.5753 26.5984 55.542 27.5731C57.3503 29.3962 57.9658 30.6087 58.668 33.731C58.7823 34.2391 58.8046 34.2132 59.1243 33.197C59.9051 30.7147 60.3544 27.6169 60.4536 24.03C60.5468 20.6552 60.5673 20.5035 61.1937 18.553C61.9384 16.2335 61.9707 16.3333 60.164 15.349C57.5938 13.9485 56.9818 13.6751 56.6513 13.7801C56.4615 13.8403 55.8523 14.5238 55.2973 15.2991C54.7421 16.0743 54.1248 16.7605 53.9254 16.8237C53.409 16.9876 52.2184 16.7534 51.7971 16.4051C51.5512 16.2016 51.3255 15.5802 51.0755 14.418C50.5922 12.171 50.435 12.0206 48.5446 11.996C47.7395 11.9855 46.6196 12.0095 46.0557 12.0494ZM65.148 21.2516C64.5116 21.4816 63.5905 21.8227 63.101 22.0096L62.211 22.3494L62.0992 25.5482C61.9333 30.2942 61.3567 32.9411 59.7546 36.312C57.6515 40.7369 53.8553 44.2914 50.3499 45.1177C48.2645 45.6093 45.4442 45.345 43.7944 44.5032C42.993 44.0946 42.6208 44.259 42.7933 44.9459C42.9352 45.5111 46.0453 48.6902 47.615 49.8744C48.7068 50.6982 51.8432 52.5303 53.1468 53.106C53.6319 53.3201 54.1178 53.7628 54.6105 54.4394C55.9313 56.253 57.0194 57.316 57.5554 57.316C58.0899 57.316 61.8617 55.2286 62.398 54.6359C62.9003 54.0811 62.827 52.6578 62.2362 51.4919C61.6001 50.2364 61.6218 49.6369 62.3249 49.0454C62.6723 48.753 62.9922 48.6191 63.1704 48.6918C63.3281 48.7558 63.9776 49.0095 64.614 49.2555C67.2535 50.2758 67.3445 50.2382 68.955 47.4648C69.6134 46.3309 70.1982 45.1198 70.2544 44.7734C70.3642 44.0963 70.1786 43.8674 67.916 41.8923C67.1337 41.2095 67.0793 41.1088 67.1948 40.5573C67.2635 40.2295 67.4118 39.8731 67.5243 39.7658C67.6369 39.6583 68.57 39.4212 69.598 39.2387C72.3068 38.7581 72.268 38.8147 72.268 35.348C72.268 32.7221 72.2485 32.5699 71.871 32.218C71.4308 31.8079 71.2962 31.7672 69.509 31.5016C68.0615 31.2866 67.4433 30.904 67.2058 30.076C67.0426 29.5066 67.0707 29.4544 67.9164 28.759C69.5207 27.44 70.31 26.5838 70.31 26.1625C70.31 25.9389 69.7375 24.7344 69.0378 23.4857C67.4221 20.6021 67.238 20.4964 65.148 21.2516ZM66.038 21.9288C65.7932 22.0332 65.0529 22.3285 64.3927 22.5849L63.1924 23.051L63.1211 25.632C62.995 30.1807 62.172 33.6862 60.4251 37.113C59.2117 39.4931 58.1369 40.9781 56.5075 42.526C53.7583 45.1375 51.3092 46.2779 48.327 46.3354C47.4459 46.3525 46.3245 46.3044 45.835 46.2286L44.945 46.0908L46.3145 47.4134C47.9645 49.007 50.259 50.5714 52.7949 51.832C54.3601 52.6101 54.7613 52.8963 55.2026 53.5503C56.0304 54.7769 57.358 56.248 57.6371 56.248C57.9235 56.248 60.9774 54.5716 61.4545 54.1526C61.9069 53.755 61.8382 52.9908 61.232 51.6809C60.563 50.2359 60.5621 49.7251 61.2264 48.808C62.1855 47.484 62.6309 47.431 65.0817 48.3491L66.8041 48.9944L67.1266 48.5716C67.5999 47.9515 69.331 44.8016 69.331 44.5606C69.331 44.447 68.7065 43.8617 67.9431 43.2599C66.178 41.868 65.8591 41.0707 66.4765 39.5929C66.79 38.8428 67.3754 38.5655 69.242 38.2832C71.3965 37.9571 71.2 38.2531 71.2 35.3338V32.7773L70.2655 32.5966C69.7516 32.4973 68.9705 32.364 68.53 32.3003C66.9668 32.0744 66.216 31.2186 66.216 29.6625C66.216 29.0164 66.3126 28.8547 67.1316 28.1315C67.6351 27.6869 68.355 27.0427 68.7309 26.7L69.4148 26.077L68.1572 23.8965C67.4657 22.6974 66.806 21.7212 66.6914 21.7273C66.5768 21.7335 66.2827 21.8241 66.038 21.9288Z" fill="white"/>
<path d="M25.1425 32.7054C25.2839 32.5194 26.0674 32.2746 27.2912 32.034L30.26 31.061L33.6706 29.5361L40.05 27.0382C41.078 26.7634 41.984 26.5348 42.0634 26.5302C42.1428 26.5257 41.8516 26.8301 41.4163 27.207C39.5037 28.8624 38.5566 30.2636 37.8777 32.4421C36.6604 36.3483 38.201 41.9781 41.8167 46.8368C42.7274 48.0059 45.0192 50.6234 47.0418 51.9363C47.0824 51.9622 47.1292 51.9919 47.1814 52.0251C48.2049 52.6754 51.3303 54.646 51.617 54.646C51.8482 54.646 51.8448 55.0284 51.5992 56.6802C51.3082 58.6371 51.3046 58.6398 48.9458 58.7117C45.5677 58.8148 45.3841 58.7039 44.9651 56.3039C43.9132 55.4034 41.7751 55.072 40.8375 55.0189C39.5363 56.6496 39.1566 56.8991 38.4989 56.5551C36.9637 55.7516 34.6032 54.2893 34.4501 54.0467C34.3216 53.8429 34.4322 53.285 34.8505 52.0251C35.1684 51.068 35.427 50.0969 35.4252 49.8667C35.4234 49.6314 35.1573 49.1837 34.8168 48.8432C34.0543 48.0807 33.5687 48.0694 31.744 48.772C29.5904 49.6013 29.6114 49.6093 28.3529 47.4815C26.6578 44.6157 26.6616 44.5142 28.5204 42.9028C29.2324 42.2855 29.8757 41.6226 29.9501 41.4295C30.1183 40.9922 29.8239 39.8542 29.4099 39.3432C29.1612 39.0361 28.7458 38.9094 27.3465 38.7139C24.8819 38.3697 24.92 38.4211 24.92 35.4284C24.92 33.759 24.9896 32.9065 25.1425 32.7054Z" fill="#EC3426"/>
<path fill-rule="evenodd" clip-rule="evenodd" d="M30.7127 52.7494C30.5206 52.8899 30.1344 53.7261 29.8266 54.6677C29.2896 56.311 29.268 56.3432 28.4494 56.7345C27.2413 57.3119 26.1504 57.5645 25.4471 57.4296C25.0743 57.358 24.3773 56.9255 23.6822 56.3347C23.0505 55.7975 22.4097 55.3585 22.2582 55.3591C21.8082 55.361 20.292 56.7678 20.292 57.1834C20.292 57.389 20.6589 58.2795 21.1074 59.162L21.9229 60.7671L21.4312 61.9883C20.745 63.6929 20.1327 64.1952 18.5679 64.3378C17.9008 64.3985 17.0547 64.5287 16.6875 64.6272L16.02 64.8062V66.1236C16.02 66.9821 16.0974 67.4912 16.2425 67.585C16.365 67.6642 17.1841 67.9707 18.0633 68.2662C19.5238 68.7573 19.6957 68.8647 20.0612 69.5122C20.5531 70.3844 20.9118 71.9022 20.7646 72.4887C20.7043 72.7289 20.1728 73.5295 19.5834 74.2677C18.9942 75.006 18.512 75.682 18.512 75.7703C18.512 75.8584 18.9049 76.349 19.3849 76.8604C19.8062 77.3091 20.0399 77.5665 20.3198 77.6351C20.697 77.7275 21.1581 77.4772 22.2749 76.89C23.7523 76.113 24.5978 76.1867 26.2233 77.234C27.1078 77.8038 27.5162 78.6376 27.7563 80.3642C27.8636 81.1356 27.9967 81.8122 28.0523 81.8679C28.1076 81.9234 28.762 81.969 29.5062 81.969H30.8592L31.4548 80.1903C31.7823 79.212 32.1481 78.3284 32.2677 78.2267C32.3871 78.1251 33.178 77.815 34.0249 77.5373L35.565 77.0327L36.4279 77.6246C36.9026 77.9501 37.6376 78.48 38.0612 78.8022C38.4847 79.1244 38.93 79.388 39.0507 79.388C39.1714 79.388 39.7047 78.9987 40.2359 78.5231L41.2017 77.6582L40.6837 76.6096C40.3989 76.0329 40.0465 75.4199 39.9003 75.2472C39.4804 74.7511 39.5783 73.543 40.1255 72.4681C40.9731 70.8034 41.115 70.7226 44.1417 70.1843C45.0773 70.0181 45.3674 69.5857 45.4165 68.2845C45.4536 67.3068 45.2797 67.1327 43.8069 66.6726C41.6417 65.9962 41.4226 65.8362 40.8916 64.5435C40.1575 62.756 40.2166 62.3787 41.474 60.8155C42.1362 59.9926 42.542 59.3199 42.542 59.046C42.542 58.7706 42.2426 58.2779 41.7478 57.7389L40.9535 56.874L39.4311 57.6289C37.5587 58.5576 36.935 58.5878 35.4491 57.8214C34.2138 57.1843 33.6427 56.3183 33.641 55.0793C33.6397 54.0962 33.3255 53.0768 32.9667 52.8909C32.3485 52.5705 31.0672 52.4901 30.7127 52.7494ZM26.0341 65.2288C26.702 63.9166 27.76 62.9364 28.878 62.5942C30.1199 62.214 31.8949 62.3052 32.8617 62.7988C34.0334 63.3972 34.6515 64.0186 35.2337 65.1836C36.1766 67.0704 35.9088 69.0359 34.4756 70.7506C32.6226 72.9672 28.9289 73.0434 26.9223 70.9061C25.4989 69.3901 25.1269 67.0117 26.0341 65.2288Z" fill="#EC3426"/>
</svg>
